<svg xmlns="http://www.w3.org/2000/svg" width="900" height="1200" viewBox="0 0 900 1200" role="img" aria-label="Letters to the Sea cover">
  
  <defs>
    <radialGradient id="glow-cov3" cx="50%" cy="-5%" r="85%">
      <stop offset="0%" stop-color="#F2EEE6" stop-opacity="0.16"/>
      <stop offset="45%" stop-color="#F2EEE6" stop-opacity="0.04"/>
      <stop offset="100%" stop-color="#F2EEE6" stop-opacity="0"/>
    </radialGradient>
    <linearGradient id="vign-cov3" x1="0" y1="0" x2="0" y2="1">
      <stop offset="0%" stop-color="#000" stop-opacity="0"/>
      <stop offset="100%" stop-color="#000" stop-opacity="0.55"/>
    </linearGradient>
    
  <filter id="grain-cov3">
    <feTurbulence type="fractalNoise" baseFrequency="0.85" numOctaves="2" stitchTiles="stitch"/>
    <feColorMatrix type="saturate" values="0"/>
    <feComponentTransfer><feFuncA type="linear" slope="0.05"/></feComponentTransfer>
  </filter>
  </defs>
  <rect width="900" height="1200" fill="#121215"/>
  <rect width="900" height="1200" fill="url(#glow-cov3)"/>
  <rect x="28" y="28" width="844" height="1144" fill="none" stroke="#F2EEE6" stroke-width="1" opacity="0.18"/>
  <rect x="288" y="264" width="324" height="432" fill="none" stroke="#F2EEE6" stroke-width="1" opacity="0.3" transform="rotate(45 450 480)"/>
  <g><g><rect x="1" y="1110" width="62.28571428571429" height="90" fill="#F2EEE6" opacity="0.25200000000000006"/><rect x="65.28571428571429" y="1110" width="62.28571428571429" height="90" fill="#F2EEE6" opacity="0.25200000000000006"/><rect x="129.57142857142858" y="1110" width="62.28571428571429" height="90" fill="#F2EEE6" opacity="0.25200000000000006"/><rect x="193.8571428571429" y="1110" width="62.28571428571429" height="90" fill="#F2EEE6" opacity="0.25200000000000006"/><rect x="258.14285714285717" y="1110" width="62.28571428571429" height="90" fill="#F2EEE6" opacity="0.25200000000000006"/><rect x="322.42857142857144" y="1110" width="62.28571428571429" height="90" fill="#F2EEE6" opacity="0.25200000000000006"/><rect x="386.7142857142858" y="1110" width="62.28571428571429" height="90" fill="#F2EEE6" opacity="0.25200000000000006"/><rect x="451.00000000000006" y="1110" width="62.28571428571429" height="90" fill="#F2EEE6" opacity="0.25200000000000006"/><rect x="515.2857142857143" y="1110" width="62.28571428571429" height="90" fill="#F2EEE6" opacity="0.25200000000000006"/><rect x="579.5714285714287" y="1110" width="62.28571428571429" height="90" fill="#F2EEE6" opacity="0.25200000000000006"/><rect x="643.8571428571429" y="1110" width="62.28571428571429" height="90" fill="#F2EEE6" opacity="0.25200000000000006"/><rect x="708.1428571428572" y="1110" width="62.28571428571429" height="90" fill="#F2EEE6" opacity="0.25200000000000006"/><rect x="772.4285714285716" y="1110" width="62.28571428571429" height="90" fill="#F2EEE6" opacity="0.25200000000000006"/><rect x="836.7142857142858" y="1110" width="62.28571428571429" height="90" fill="#F2EEE6" opacity="0.25200000000000006"/><rect x="42.42857142857144" y="1110" width="39.85714285714286" height="55.8" fill="#0A0A0C" opacity="0.28"/><rect x="106.71428571428572" y="1110" width="39.85714285714286" height="55.8" fill="#0A0A0C" opacity="0.28"/><rect x="235.28571428571433" y="1110" width="39.85714285714286" height="55.8" fill="#0A0A0C" opacity="0.28"/><rect x="299.5714285714286" y="1110" width="39.85714285714286" height="55.8" fill="#0A0A0C" opacity="0.28"/><rect x="363.8571428571429" y="1110" width="39.85714285714286" height="55.8" fill="#0A0A0C" opacity="0.28"/><rect x="492.4285714285715" y="1110" width="39.85714285714286" height="55.8" fill="#0A0A0C" opacity="0.28"/><rect x="556.7142857142858" y="1110" width="39.85714285714286" height="55.8" fill="#0A0A0C" opacity="0.28"/><rect x="685.2857142857143" y="1110" width="39.85714285714286" height="55.8" fill="#0A0A0C" opacity="0.28"/><rect x="749.5714285714287" y="1110" width="39.85714285714286" height="55.8" fill="#0A0A0C" opacity="0.28"/><rect x="813.857142857143" y="1110" width="39.85714285714286" height="55.8" fill="#0A0A0C" opacity="0.28"/></g></g>
  <rect width="900" height="1200" fill="url(#vign-cov3)"/>
  <text x="450" y="864" text-anchor="middle" font-family="Georgia, serif" font-style="italic" font-size="58" fill="#F2EEE6">Letters to the Sea</text>
  <text x="450" y="908" text-anchor="middle" font-family="Helvetica, Arial, sans-serif" font-size="18" letter-spacing="6" fill="#8C8C96">REZA OHADI</text>
  <rect width="900" height="1200" filter="url(#grain-cov3)"/>
</svg>
