<svg xmlns="http://www.w3.org/2000/svg" width="900" height="1200" viewBox="0 0 900 1200" role="img" aria-label="Veil of Snow cover">
  
  <defs>
    <radialGradient id="glow-cov1" cx="50%" cy="-5%" r="85%">
      <stop offset="0%" stop-color="#F2EEE6" stop-opacity="0.16"/>
      <stop offset="45%" stop-color="#F2EEE6" stop-opacity="0.04"/>
      <stop offset="100%" stop-color="#F2EEE6" stop-opacity="0"/>
    </radialGradient>
    <linearGradient id="vign-cov1" x1="0" y1="0" x2="0" y2="1">
      <stop offset="0%" stop-color="#000" stop-opacity="0"/>
      <stop offset="100%" stop-color="#000" stop-opacity="0.55"/>
    </linearGradient>
    
  <filter id="grain-cov1">
    <feTurbulence type="fractalNoise" baseFrequency="0.85" numOctaves="2" stitchTiles="stitch"/>
    <feColorMatrix type="saturate" values="0"/>
    <feComponentTransfer><feFuncA type="linear" slope="0.05"/></feComponentTransfer>
  </filter>
  </defs>
  <rect width="900" height="1200" fill="#121215"/>
  <rect width="900" height="1200" fill="url(#glow-cov1)"/>
  <ellipse cx="450" cy="480" rx="396" ry="360" fill="#F2EEE6" opacity="0.05"/>
  <rect x="28" y="28" width="844" height="1144" fill="none" stroke="#F2EEE6" stroke-width="1" opacity="0.2"/>
  <g opacity="0.55"><line x1="144" y1="360" x2="756" y2="360" stroke="#F2EEE6" stroke-width="1.3" opacity="0.7"/><line x1="144" y1="378" x2="756" y2="378" stroke="#F2EEE6" stroke-width="1.3" opacity="0.7"/><line x1="144" y1="396" x2="756" y2="396" stroke="#F2EEE6" stroke-width="1.3" opacity="0.7"/><line x1="144" y1="414" x2="756" y2="414" stroke="#F2EEE6" stroke-width="1.3" opacity="0.7"/><line x1="144" y1="432" x2="756" y2="432" stroke="#F2EEE6" stroke-width="1.3" opacity="0.7"/><path d="M 216 312 C 288 360, 162 504, 243.00000000000003 552" fill="none" stroke="#F2EEE6" stroke-width="1.4"/></g>
  <g><g><rect x="1" y="1110" width="62.28571428571429" height="90" fill="#F2EEE6" opacity="0.27"/><rect x="65.28571428571429" y="1110" width="62.28571428571429" height="90" fill="#F2EEE6" opacity="0.27"/><rect x="129.57142857142858" y="1110" width="62.28571428571429" height="90" fill="#F2EEE6" opacity="0.27"/><rect x="193.8571428571429" y="1110" width="62.28571428571429" height="90" fill="#F2EEE6" opacity="0.27"/><rect x="258.14285714285717" y="1110" width="62.28571428571429" height="90" fill="#F2EEE6" opacity="0.27"/><rect x="322.42857142857144" y="1110" width="62.28571428571429" height="90" fill="#F2EEE6" opacity="0.27"/><rect x="386.7142857142858" y="1110" width="62.28571428571429" height="90" fill="#F2EEE6" opacity="0.27"/><rect x="451.00000000000006" y="1110" width="62.28571428571429" height="90" fill="#F2EEE6" opacity="0.27"/><rect x="515.2857142857143" y="1110" width="62.28571428571429" height="90" fill="#F2EEE6" opacity="0.27"/><rect x="579.5714285714287" y="1110" width="62.28571428571429" height="90" fill="#F2EEE6" opacity="0.27"/><rect x="643.8571428571429" y="1110" width="62.28571428571429" height="90" fill="#F2EEE6" opacity="0.27"/><rect x="708.1428571428572" y="1110" width="62.28571428571429" height="90" fill="#F2EEE6" opacity="0.27"/><rect x="772.4285714285716" y="1110" width="62.28571428571429" height="90" fill="#F2EEE6" opacity="0.27"/><rect x="836.7142857142858" y="1110" width="62.28571428571429" height="90" fill="#F2EEE6" opacity="0.27"/><rect x="42.42857142857144" y="1110" width="39.85714285714286" height="55.8" fill="#0A0A0C" opacity="0.3"/><rect x="106.71428571428572" y="1110" width="39.85714285714286" height="55.8" fill="#0A0A0C" opacity="0.3"/><rect x="235.28571428571433" y="1110" width="39.85714285714286" height="55.8" fill="#0A0A0C" opacity="0.3"/><rect x="299.5714285714286" y="1110" width="39.85714285714286" height="55.8" fill="#0A0A0C" opacity="0.3"/><rect x="363.8571428571429" y="1110" width="39.85714285714286" height="55.8" fill="#0A0A0C" opacity="0.3"/><rect x="492.4285714285715" y="1110" width="39.85714285714286" height="55.8" fill="#0A0A0C" opacity="0.3"/><rect x="556.7142857142858" y="1110" width="39.85714285714286" height="55.8" fill="#0A0A0C" opacity="0.3"/><rect x="685.2857142857143" y="1110" width="39.85714285714286" height="55.8" fill="#0A0A0C" opacity="0.3"/><rect x="749.5714285714287" y="1110" width="39.85714285714286" height="55.8" fill="#0A0A0C" opacity="0.3"/><rect x="813.857142857143" y="1110" width="39.85714285714286" height="55.8" fill="#0A0A0C" opacity="0.3"/></g></g>
  <rect width="900" height="1200" fill="url(#vign-cov1)"/>
  <text x="450" y="864" text-anchor="middle" font-family="Georgia, serif" font-style="italic" font-size="58" fill="#F2EEE6">Veil of Snow</text>
  <text x="450" y="908" text-anchor="middle" font-family="Helvetica, Arial, sans-serif" font-size="17" letter-spacing="6" fill="#A6A6AE">REZA OHADI</text>
  <rect width="900" height="1200" filter="url(#grain-cov1)"/>
</svg>
