<svg xmlns="http://www.w3.org/2000/svg" width="1000" height="1300" viewBox="0 0 1000 1300" role="img" aria-label="Gallery placeholder 1">
  <defs>
    <radialGradient id="light-g0" cx="30%" cy="24%" r="78%">
      <stop offset="0%" stop-color="#F2EEE6" stop-opacity="0.20"/>
      <stop offset="42%" stop-color="#F2EEE6" stop-opacity="0.05"/>
      <stop offset="100%" stop-color="#F2EEE6" stop-opacity="0"/>
    </radialGradient>
    <linearGradient id="vg-g0" x1="0" y1="0" x2="0" y2="1">
      <stop offset="45%" stop-color="#000" stop-opacity="0"/>
      <stop offset="100%" stop-color="#000" stop-opacity="0.5"/>
    </linearGradient>
    
  <filter id="grain-g0">
    <feTurbulence type="fractalNoise" baseFrequency="0.7" numOctaves="2" stitchTiles="stitch"/>
    <feColorMatrix type="saturate" values="0"/>
    <feComponentTransfer><feFuncA type="linear" slope="0.07"/></feComponentTransfer>
  </filter>
  </defs>
  <rect width="1000" height="1300" fill="#121215"/>
  <rect width="1000" height="1300" fill="url(#light-g0)"/>
  <g transform="translate(0 832)"><g><rect x="1" y="0" width="69.42857142857143" height="468" fill="#F2EEE6" opacity="0.30600000000000005"/><rect x="72.42857142857143" y="0" width="69.42857142857143" height="468" fill="#F2EEE6" opacity="0.30600000000000005"/><rect x="143.85714285714286" y="0" width="69.42857142857143" height="468" fill="#F2EEE6" opacity="0.30600000000000005"/><rect x="215.28571428571428" y="0" width="69.42857142857143" height="468" fill="#F2EEE6" opacity="0.30600000000000005"/><rect x="286.7142857142857" y="0" width="69.42857142857143" height="468" fill="#F2EEE6" opacity="0.30600000000000005"/><rect x="358.14285714285717" y="0" width="69.42857142857143" height="468" fill="#F2EEE6" opacity="0.30600000000000005"/><rect x="429.57142857142856" y="0" width="69.42857142857143" height="468" fill="#F2EEE6" opacity="0.30600000000000005"/><rect x="501" y="0" width="69.42857142857143" height="468" fill="#F2EEE6" opacity="0.30600000000000005"/><rect x="572.4285714285714" y="0" width="69.42857142857143" height="468" fill="#F2EEE6" opacity="0.30600000000000005"/><rect x="643.8571428571429" y="0" width="69.42857142857143" height="468" fill="#F2EEE6" opacity="0.30600000000000005"/><rect x="715.2857142857143" y="0" width="69.42857142857143" height="468" fill="#F2EEE6" opacity="0.30600000000000005"/><rect x="786.7142857142858" y="0" width="69.42857142857143" height="468" fill="#F2EEE6" opacity="0.30600000000000005"/><rect x="858.1428571428571" y="0" width="69.42857142857143" height="468" fill="#F2EEE6" opacity="0.30600000000000005"/><rect x="929.5714285714286" y="0" width="69.42857142857143" height="468" fill="#F2EEE6" opacity="0.30600000000000005"/><rect x="47.142857142857146" y="0" width="44.285714285714285" height="290.16" fill="#0A0A0C" opacity="0.34"/><rect x="118.57142857142858" y="0" width="44.285714285714285" height="290.16" fill="#0A0A0C" opacity="0.34"/><rect x="261.42857142857144" y="0" width="44.285714285714285" height="290.16" fill="#0A0A0C" opacity="0.34"/><rect x="332.8571428571429" y="0" width="44.285714285714285" height="290.16" fill="#0A0A0C" opacity="0.34"/><rect x="404.28571428571433" y="0" width="44.285714285714285" height="290.16" fill="#0A0A0C" opacity="0.34"/><rect x="547.1428571428571" y="0" width="44.285714285714285" height="290.16" fill="#0A0A0C" opacity="0.34"/><rect x="618.5714285714286" y="0" width="44.285714285714285" height="290.16" fill="#0A0A0C" opacity="0.34"/><rect x="761.4285714285714" y="0" width="44.285714285714285" height="290.16" fill="#0A0A0C" opacity="0.34"/><rect x="832.8571428571429" y="0" width="44.285714285714285" height="290.16" fill="#0A0A0C" opacity="0.34"/><rect x="904.2857142857142" y="0" width="44.285714285714285" height="290.16" fill="#0A0A0C" opacity="0.34"/></g></g>
  <rect width="1000" height="1300" fill="url(#vg-g0)"/>
  <rect width="1000" height="1300" filter="url(#grain-g0)"/>
</svg>
