<svg xmlns="http://www.w3.org/2000/svg" width="1000" height="1250" viewBox="0 0 1000 1250" role="img" aria-label="Portrait placeholder">
  
  <defs>
    <radialGradient id="glow-por" cx="50%" cy="-5%" r="85%">
      <stop offset="0%" stop-color="#F2EEE6" stop-opacity="0.16"/>
      <stop offset="45%" stop-color="#F2EEE6" stop-opacity="0.04"/>
      <stop offset="100%" stop-color="#F2EEE6" stop-opacity="0"/>
    </radialGradient>
    <linearGradient id="vign-por" x1="0" y1="0" x2="0" y2="1">
      <stop offset="0%" stop-color="#000" stop-opacity="0"/>
      <stop offset="100%" stop-color="#000" stop-opacity="0.55"/>
    </linearGradient>
    
  <filter id="grain-por">
    <feTurbulence type="fractalNoise" baseFrequency="0.85" numOctaves="2" stitchTiles="stitch"/>
    <feColorMatrix type="saturate" values="0"/>
    <feComponentTransfer><feFuncA type="linear" slope="0.05"/></feComponentTransfer>
  </filter>
  </defs>
  <rect width="1000" height="1250" fill="#121215"/>
  <rect width="1000" height="1250" fill="url(#glow-por)"/>
  <ellipse cx="500" cy="525" rx="190" ry="240" fill="none" stroke="#F2EEE6" stroke-width="1.2" opacity="0.18"/>
  <circle cx="500" cy="425.00000000000006" r="86" fill="none" stroke="#F2EEE6" stroke-width="1.2" opacity="0.2"/>
  <g opacity="0.6"><g><rect x="1" y="1100" width="69.42857142857143" height="150" fill="#F2EEE6" opacity="0.225"/><rect x="72.42857142857143" y="1100" width="69.42857142857143" height="150" fill="#F2EEE6" opacity="0.225"/><rect x="143.85714285714286" y="1100" width="69.42857142857143" height="150" fill="#F2EEE6" opacity="0.225"/><rect x="215.28571428571428" y="1100" width="69.42857142857143" height="150" fill="#F2EEE6" opacity="0.225"/><rect x="286.7142857142857" y="1100" width="69.42857142857143" height="150" fill="#F2EEE6" opacity="0.225"/><rect x="358.14285714285717" y="1100" width="69.42857142857143" height="150" fill="#F2EEE6" opacity="0.225"/><rect x="429.57142857142856" y="1100" width="69.42857142857143" height="150" fill="#F2EEE6" opacity="0.225"/><rect x="501" y="1100" width="69.42857142857143" height="150" fill="#F2EEE6" opacity="0.225"/><rect x="572.4285714285714" y="1100" width="69.42857142857143" height="150" fill="#F2EEE6" opacity="0.225"/><rect x="643.8571428571429" y="1100" width="69.42857142857143" height="150" fill="#F2EEE6" opacity="0.225"/><rect x="715.2857142857143" y="1100" width="69.42857142857143" height="150" fill="#F2EEE6" opacity="0.225"/><rect x="786.7142857142858" y="1100" width="69.42857142857143" height="150" fill="#F2EEE6" opacity="0.225"/><rect x="858.1428571428571" y="1100" width="69.42857142857143" height="150" fill="#F2EEE6" opacity="0.225"/><rect x="929.5714285714286" y="1100" width="69.42857142857143" height="150" fill="#F2EEE6" opacity="0.225"/><rect x="47.142857142857146" y="1100" width="44.285714285714285" height="93" fill="#0A0A0C" opacity="0.25"/><rect x="118.57142857142858" y="1100" width="44.285714285714285" height="93" fill="#0A0A0C" opacity="0.25"/><rect x="261.42857142857144" y="1100" width="44.285714285714285" height="93" fill="#0A0A0C" opacity="0.25"/><rect x="332.8571428571429" y="1100" width="44.285714285714285" height="93" fill="#0A0A0C" opacity="0.25"/><rect x="404.28571428571433" y="1100" width="44.285714285714285" height="93" fill="#0A0A0C" opacity="0.25"/><rect x="547.1428571428571" y="1100" width="44.285714285714285" height="93" fill="#0A0A0C" opacity="0.25"/><rect x="618.5714285714286" y="1100" width="44.285714285714285" height="93" fill="#0A0A0C" opacity="0.25"/><rect x="761.4285714285714" y="1100" width="44.285714285714285" height="93" fill="#0A0A0C" opacity="0.25"/><rect x="832.8571428571429" y="1100" width="44.285714285714285" height="93" fill="#0A0A0C" opacity="0.25"/><rect x="904.2857142857142" y="1100" width="44.285714285714285" height="93" fill="#0A0A0C" opacity="0.25"/></g></g>
  <rect width="1000" height="1250" fill="url(#vign-por)"/>
  <rect width="1000" height="1250" filter="url(#grain-por)"/>
  <text x="500" y="1190" text-anchor="middle" font-family="Georgia, serif" font-size="22" fill="#F2EEE6" opacity="0.32" letter-spacing="10">PORTRAIT</text>
</svg>
