<svg xmlns="http://www.w3.org/2000/svg" width="900" height="1165" viewBox="0 0 900 1165" role="img" aria-label="Nocturne in Ash preview page">
  <defs>
    <filter id="blur-pv1"><feGaussianBlur stdDeviation="1.3"/></filter>
    
  <filter id="grain-pv1">
    <feTurbulence type="fractalNoise" baseFrequency="0.6" numOctaves="2" stitchTiles="stitch"/>
    <feColorMatrix type="saturate" values="0"/>
    <feComponentTransfer><feFuncA type="linear" slope="0.06"/></feComponentTransfer>
  </filter>
  </defs>
  <rect width="900" height="1165" fill="#E9E4D8"/>
  <text x="450" y="120" text-anchor="middle" font-family="Georgia, serif" font-style="italic" font-size="40" fill="#1a1a1d">Nocturne in Ash</text>
  <text x="450" y="160" text-anchor="middle" font-family="Helvetica, Arial, sans-serif" font-size="14" letter-spacing="5" fill="#55555f">REZA OHADI — PREVIEW · PAGE 2</text>
  <line x1="90" y1="230" x2="810" y2="230" stroke="#0c0c0e" stroke-width="1.1" opacity="0.85"/><line x1="90" y1="241" x2="810" y2="241" stroke="#0c0c0e" stroke-width="1.1" opacity="0.85"/><line x1="90" y1="252" x2="810" y2="252" stroke="#0c0c0e" stroke-width="1.1" opacity="0.85"/><line x1="90" y1="263" x2="810" y2="263" stroke="#0c0c0e" stroke-width="1.1" opacity="0.85"/><line x1="90" y1="274" x2="810" y2="274" stroke="#0c0c0e" stroke-width="1.1" opacity="0.85"/><g filter="url(#blur-pv1)" opacity="0.8"><ellipse cx="120" cy="234" rx="6.5" ry="4.6" fill="#0c0c0e" transform="rotate(-18 120 234)"/><line x1="126" y1="234" x2="126" y2="200" stroke="#0c0c0e" stroke-width="1.4"/><ellipse cx="188" cy="245" rx="6.5" ry="4.6" fill="#0c0c0e" transform="rotate(-18 188 245)"/><line x1="194" y1="245" x2="194" y2="211" stroke="#0c0c0e" stroke-width="1.4"/><ellipse cx="256" cy="256" rx="6.5" ry="4.6" fill="#0c0c0e" transform="rotate(-18 256 256)"/><line x1="262" y1="256" x2="262" y2="222" stroke="#0c0c0e" stroke-width="1.4"/><ellipse cx="324" cy="267" rx="6.5" ry="4.6" fill="#0c0c0e" transform="rotate(-18 324 267)"/><line x1="330" y1="267" x2="330" y2="233" stroke="#0c0c0e" stroke-width="1.4"/><ellipse cx="392" cy="278" rx="6.5" ry="4.6" fill="#0c0c0e" transform="rotate(-18 392 278)"/><line x1="398" y1="278" x2="398" y2="244" stroke="#0c0c0e" stroke-width="1.4"/><ellipse cx="460" cy="234" rx="6.5" ry="4.6" fill="#0c0c0e" transform="rotate(-18 460 234)"/><line x1="466" y1="234" x2="466" y2="200" stroke="#0c0c0e" stroke-width="1.4"/><ellipse cx="528" cy="245" rx="6.5" ry="4.6" fill="#0c0c0e" transform="rotate(-18 528 245)"/><line x1="534" y1="245" x2="534" y2="211" stroke="#0c0c0e" stroke-width="1.4"/><ellipse cx="596" cy="256" rx="6.5" ry="4.6" fill="#0c0c0e" transform="rotate(-18 596 256)"/><line x1="602" y1="256" x2="602" y2="222" stroke="#0c0c0e" stroke-width="1.4"/><ellipse cx="664" cy="267" rx="6.5" ry="4.6" fill="#0c0c0e" transform="rotate(-18 664 267)"/><line x1="670" y1="267" x2="670" y2="233" stroke="#0c0c0e" stroke-width="1.4"/><ellipse cx="732" cy="278" rx="6.5" ry="4.6" fill="#0c0c0e" transform="rotate(-18 732 278)"/><line x1="738" y1="278" x2="738" y2="244" stroke="#0c0c0e" stroke-width="1.4"/></g><line x1="90" y1="370" x2="810" y2="370" stroke="#0c0c0e" stroke-width="1.1" opacity="0.85"/><line x1="90" y1="381" x2="810" y2="381" stroke="#0c0c0e" stroke-width="1.1" opacity="0.85"/><line x1="90" y1="392" x2="810" y2="392" stroke="#0c0c0e" stroke-width="1.1" opacity="0.85"/><line x1="90" y1="403" x2="810" y2="403" stroke="#0c0c0e" stroke-width="1.1" opacity="0.85"/><line x1="90" y1="414" x2="810" y2="414" stroke="#0c0c0e" stroke-width="1.1" opacity="0.85"/><g filter="url(#blur-pv1)" opacity="0.8"><ellipse cx="128" cy="374" rx="6.5" ry="4.6" fill="#0c0c0e" transform="rotate(-18 128 374)"/><line x1="134" y1="374" x2="134" y2="340" stroke="#0c0c0e" stroke-width="1.4"/><ellipse cx="196" cy="385" rx="6.5" ry="4.6" fill="#0c0c0e" transform="rotate(-18 196 385)"/><line x1="202" y1="385" x2="202" y2="351" stroke="#0c0c0e" stroke-width="1.4"/><ellipse cx="264" cy="396" rx="6.5" ry="4.6" fill="#0c0c0e" transform="rotate(-18 264 396)"/><line x1="270" y1="396" x2="270" y2="362" stroke="#0c0c0e" stroke-width="1.4"/><ellipse cx="332" cy="407" rx="6.5" ry="4.6" fill="#0c0c0e" transform="rotate(-18 332 407)"/><line x1="338" y1="407" x2="338" y2="373" stroke="#0c0c0e" stroke-width="1.4"/><ellipse cx="400" cy="418" rx="6.5" ry="4.6" fill="#0c0c0e" transform="rotate(-18 400 418)"/><line x1="406" y1="418" x2="406" y2="384" stroke="#0c0c0e" stroke-width="1.4"/><ellipse cx="468" cy="374" rx="6.5" ry="4.6" fill="#0c0c0e" transform="rotate(-18 468 374)"/><line x1="474" y1="374" x2="474" y2="340" stroke="#0c0c0e" stroke-width="1.4"/><ellipse cx="536" cy="385" rx="6.5" ry="4.6" fill="#0c0c0e" transform="rotate(-18 536 385)"/><line x1="542" y1="385" x2="542" y2="351" stroke="#0c0c0e" stroke-width="1.4"/><ellipse cx="604" cy="396" rx="6.5" ry="4.6" fill="#0c0c0e" transform="rotate(-18 604 396)"/><line x1="610" y1="396" x2="610" y2="362" stroke="#0c0c0e" stroke-width="1.4"/><ellipse cx="672" cy="407" rx="6.5" ry="4.6" fill="#0c0c0e" transform="rotate(-18 672 407)"/><line x1="678" y1="407" x2="678" y2="373" stroke="#0c0c0e" stroke-width="1.4"/><ellipse cx="740" cy="418" rx="6.5" ry="4.6" fill="#0c0c0e" transform="rotate(-18 740 418)"/><line x1="746" y1="418" x2="746" y2="384" stroke="#0c0c0e" stroke-width="1.4"/></g><line x1="90" y1="510" x2="810" y2="510" stroke="#0c0c0e" stroke-width="1.1" opacity="0.85"/><line x1="90" y1="521" x2="810" y2="521" stroke="#0c0c0e" stroke-width="1.1" opacity="0.85"/><line x1="90" y1="532" x2="810" y2="532" stroke="#0c0c0e" stroke-width="1.1" opacity="0.85"/><line x1="90" y1="543" x2="810" y2="543" stroke="#0c0c0e" stroke-width="1.1" opacity="0.85"/><line x1="90" y1="554" x2="810" y2="554" stroke="#0c0c0e" stroke-width="1.1" opacity="0.85"/><g filter="url(#blur-pv1)" opacity="0.8"><ellipse cx="120" cy="514" rx="6.5" ry="4.6" fill="#0c0c0e" transform="rotate(-18 120 514)"/><line x1="126" y1="514" x2="126" y2="480" stroke="#0c0c0e" stroke-width="1.4"/><ellipse cx="188" cy="525" rx="6.5" ry="4.6" fill="#0c0c0e" transform="rotate(-18 188 525)"/><line x1="194" y1="525" x2="194" y2="491" stroke="#0c0c0e" stroke-width="1.4"/><ellipse cx="256" cy="536" rx="6.5" ry="4.6" fill="#0c0c0e" transform="rotate(-18 256 536)"/><line x1="262" y1="536" x2="262" y2="502" stroke="#0c0c0e" stroke-width="1.4"/><ellipse cx="324" cy="547" rx="6.5" ry="4.6" fill="#0c0c0e" transform="rotate(-18 324 547)"/><line x1="330" y1="547" x2="330" y2="513" stroke="#0c0c0e" stroke-width="1.4"/><ellipse cx="392" cy="558" rx="6.5" ry="4.6" fill="#0c0c0e" transform="rotate(-18 392 558)"/><line x1="398" y1="558" x2="398" y2="524" stroke="#0c0c0e" stroke-width="1.4"/><ellipse cx="460" cy="514" rx="6.5" ry="4.6" fill="#0c0c0e" transform="rotate(-18 460 514)"/><line x1="466" y1="514" x2="466" y2="480" stroke="#0c0c0e" stroke-width="1.4"/><ellipse cx="528" cy="525" rx="6.5" ry="4.6" fill="#0c0c0e" transform="rotate(-18 528 525)"/><line x1="534" y1="525" x2="534" y2="491" stroke="#0c0c0e" stroke-width="1.4"/><ellipse cx="596" cy="536" rx="6.5" ry="4.6" fill="#0c0c0e" transform="rotate(-18 596 536)"/><line x1="602" y1="536" x2="602" y2="502" stroke="#0c0c0e" stroke-width="1.4"/><ellipse cx="664" cy="547" rx="6.5" ry="4.6" fill="#0c0c0e" transform="rotate(-18 664 547)"/><line x1="670" y1="547" x2="670" y2="513" stroke="#0c0c0e" stroke-width="1.4"/><ellipse cx="732" cy="558" rx="6.5" ry="4.6" fill="#0c0c0e" transform="rotate(-18 732 558)"/><line x1="738" y1="558" x2="738" y2="524" stroke="#0c0c0e" stroke-width="1.4"/></g><line x1="90" y1="650" x2="810" y2="650" stroke="#0c0c0e" stroke-width="1.1" opacity="0.85"/><line x1="90" y1="661" x2="810" y2="661" stroke="#0c0c0e" stroke-width="1.1" opacity="0.85"/><line x1="90" y1="672" x2="810" y2="672" stroke="#0c0c0e" stroke-width="1.1" opacity="0.85"/><line x1="90" y1="683" x2="810" y2="683" stroke="#0c0c0e" stroke-width="1.1" opacity="0.85"/><line x1="90" y1="694" x2="810" y2="694" stroke="#0c0c0e" stroke-width="1.1" opacity="0.85"/><g filter="url(#blur-pv1)" opacity="0.8"><ellipse cx="128" cy="654" rx="6.5" ry="4.6" fill="#0c0c0e" transform="rotate(-18 128 654)"/><line x1="134" y1="654" x2="134" y2="620" stroke="#0c0c0e" stroke-width="1.4"/><ellipse cx="196" cy="665" rx="6.5" ry="4.6" fill="#0c0c0e" transform="rotate(-18 196 665)"/><line x1="202" y1="665" x2="202" y2="631" stroke="#0c0c0e" stroke-width="1.4"/><ellipse cx="264" cy="676" rx="6.5" ry="4.6" fill="#0c0c0e" transform="rotate(-18 264 676)"/><line x1="270" y1="676" x2="270" y2="642" stroke="#0c0c0e" stroke-width="1.4"/><ellipse cx="332" cy="687" rx="6.5" ry="4.6" fill="#0c0c0e" transform="rotate(-18 332 687)"/><line x1="338" y1="687" x2="338" y2="653" stroke="#0c0c0e" stroke-width="1.4"/><ellipse cx="400" cy="698" rx="6.5" ry="4.6" fill="#0c0c0e" transform="rotate(-18 400 698)"/><line x1="406" y1="698" x2="406" y2="664" stroke="#0c0c0e" stroke-width="1.4"/><ellipse cx="468" cy="654" rx="6.5" ry="4.6" fill="#0c0c0e" transform="rotate(-18 468 654)"/><line x1="474" y1="654" x2="474" y2="620" stroke="#0c0c0e" stroke-width="1.4"/><ellipse cx="536" cy="665" rx="6.5" ry="4.6" fill="#0c0c0e" transform="rotate(-18 536 665)"/><line x1="542" y1="665" x2="542" y2="631" stroke="#0c0c0e" stroke-width="1.4"/><ellipse cx="604" cy="676" rx="6.5" ry="4.6" fill="#0c0c0e" transform="rotate(-18 604 676)"/><line x1="610" y1="676" x2="610" y2="642" stroke="#0c0c0e" stroke-width="1.4"/><ellipse cx="672" cy="687" rx="6.5" ry="4.6" fill="#0c0c0e" transform="rotate(-18 672 687)"/><line x1="678" y1="687" x2="678" y2="653" stroke="#0c0c0e" stroke-width="1.4"/><ellipse cx="740" cy="698" rx="6.5" ry="4.6" fill="#0c0c0e" transform="rotate(-18 740 698)"/><line x1="746" y1="698" x2="746" y2="664" stroke="#0c0c0e" stroke-width="1.4"/></g><line x1="90" y1="790" x2="810" y2="790" stroke="#0c0c0e" stroke-width="1.1" opacity="0.85"/><line x1="90" y1="801" x2="810" y2="801" stroke="#0c0c0e" stroke-width="1.1" opacity="0.85"/><line x1="90" y1="812" x2="810" y2="812" stroke="#0c0c0e" stroke-width="1.1" opacity="0.85"/><line x1="90" y1="823" x2="810" y2="823" stroke="#0c0c0e" stroke-width="1.1" opacity="0.85"/><line x1="90" y1="834" x2="810" y2="834" stroke="#0c0c0e" stroke-width="1.1" opacity="0.85"/><g filter="url(#blur-pv1)" opacity="0.8"><ellipse cx="120" cy="794" rx="6.5" ry="4.6" fill="#0c0c0e" transform="rotate(-18 120 794)"/><line x1="126" y1="794" x2="126" y2="760" stroke="#0c0c0e" stroke-width="1.4"/><ellipse cx="188" cy="805" rx="6.5" ry="4.6" fill="#0c0c0e" transform="rotate(-18 188 805)"/><line x1="194" y1="805" x2="194" y2="771" stroke="#0c0c0e" stroke-width="1.4"/><ellipse cx="256" cy="816" rx="6.5" ry="4.6" fill="#0c0c0e" transform="rotate(-18 256 816)"/><line x1="262" y1="816" x2="262" y2="782" stroke="#0c0c0e" stroke-width="1.4"/><ellipse cx="324" cy="827" rx="6.5" ry="4.6" fill="#0c0c0e" transform="rotate(-18 324 827)"/><line x1="330" y1="827" x2="330" y2="793" stroke="#0c0c0e" stroke-width="1.4"/><ellipse cx="392" cy="838" rx="6.5" ry="4.6" fill="#0c0c0e" transform="rotate(-18 392 838)"/><line x1="398" y1="838" x2="398" y2="804" stroke="#0c0c0e" stroke-width="1.4"/><ellipse cx="460" cy="794" rx="6.5" ry="4.6" fill="#0c0c0e" transform="rotate(-18 460 794)"/><line x1="466" y1="794" x2="466" y2="760" stroke="#0c0c0e" stroke-width="1.4"/><ellipse cx="528" cy="805" rx="6.5" ry="4.6" fill="#0c0c0e" transform="rotate(-18 528 805)"/><line x1="534" y1="805" x2="534" y2="771" stroke="#0c0c0e" stroke-width="1.4"/><ellipse cx="596" cy="816" rx="6.5" ry="4.6" fill="#0c0c0e" transform="rotate(-18 596 816)"/><line x1="602" y1="816" x2="602" y2="782" stroke="#0c0c0e" stroke-width="1.4"/><ellipse cx="664" cy="827" rx="6.5" ry="4.6" fill="#0c0c0e" transform="rotate(-18 664 827)"/><line x1="670" y1="827" x2="670" y2="793" stroke="#0c0c0e" stroke-width="1.4"/><ellipse cx="732" cy="838" rx="6.5" ry="4.6" fill="#0c0c0e" transform="rotate(-18 732 838)"/><line x1="738" y1="838" x2="738" y2="804" stroke="#0c0c0e" stroke-width="1.4"/></g><line x1="90" y1="930" x2="810" y2="930" stroke="#0c0c0e" stroke-width="1.1" opacity="0.85"/><line x1="90" y1="941" x2="810" y2="941" stroke="#0c0c0e" stroke-width="1.1" opacity="0.85"/><line x1="90" y1="952" x2="810" y2="952" stroke="#0c0c0e" stroke-width="1.1" opacity="0.85"/><line x1="90" y1="963" x2="810" y2="963" stroke="#0c0c0e" stroke-width="1.1" opacity="0.85"/><line x1="90" y1="974" x2="810" y2="974" stroke="#0c0c0e" stroke-width="1.1" opacity="0.85"/><g filter="url(#blur-pv1)" opacity="0.8"><ellipse cx="128" cy="934" rx="6.5" ry="4.6" fill="#0c0c0e" transform="rotate(-18 128 934)"/><line x1="134" y1="934" x2="134" y2="900" stroke="#0c0c0e" stroke-width="1.4"/><ellipse cx="196" cy="945" rx="6.5" ry="4.6" fill="#0c0c0e" transform="rotate(-18 196 945)"/><line x1="202" y1="945" x2="202" y2="911" stroke="#0c0c0e" stroke-width="1.4"/><ellipse cx="264" cy="956" rx="6.5" ry="4.6" fill="#0c0c0e" transform="rotate(-18 264 956)"/><line x1="270" y1="956" x2="270" y2="922" stroke="#0c0c0e" stroke-width="1.4"/><ellipse cx="332" cy="967" rx="6.5" ry="4.6" fill="#0c0c0e" transform="rotate(-18 332 967)"/><line x1="338" y1="967" x2="338" y2="933" stroke="#0c0c0e" stroke-width="1.4"/><ellipse cx="400" cy="978" rx="6.5" ry="4.6" fill="#0c0c0e" transform="rotate(-18 400 978)"/><line x1="406" y1="978" x2="406" y2="944" stroke="#0c0c0e" stroke-width="1.4"/><ellipse cx="468" cy="934" rx="6.5" ry="4.6" fill="#0c0c0e" transform="rotate(-18 468 934)"/><line x1="474" y1="934" x2="474" y2="900" stroke="#0c0c0e" stroke-width="1.4"/><ellipse cx="536" cy="945" rx="6.5" ry="4.6" fill="#0c0c0e" transform="rotate(-18 536 945)"/><line x1="542" y1="945" x2="542" y2="911" stroke="#0c0c0e" stroke-width="1.4"/><ellipse cx="604" cy="956" rx="6.5" ry="4.6" fill="#0c0c0e" transform="rotate(-18 604 956)"/><line x1="610" y1="956" x2="610" y2="922" stroke="#0c0c0e" stroke-width="1.4"/><ellipse cx="672" cy="967" rx="6.5" ry="4.6" fill="#0c0c0e" transform="rotate(-18 672 967)"/><line x1="678" y1="967" x2="678" y2="933" stroke="#0c0c0e" stroke-width="1.4"/><ellipse cx="740" cy="978" rx="6.5" ry="4.6" fill="#0c0c0e" transform="rotate(-18 740 978)"/><line x1="746" y1="978" x2="746" y2="944" stroke="#0c0c0e" stroke-width="1.4"/></g>
  <text x="-480" y="-190" font-family="Helvetica, Arial, sans-serif" font-size="26" letter-spacing="6" fill="#0a0a0c" opacity="0.10" transform="rotate(-30 -320 -190)">PREVIEW · REZA OHADI</text><text x="-160" y="-190" font-family="Helvetica, Arial, sans-serif" font-size="26" letter-spacing="6" fill="#0a0a0c" opacity="0.10" transform="rotate(-30 0 -190)">PREVIEW · REZA OHADI</text><text x="160" y="-190" font-family="Helvetica, Arial, sans-serif" font-size="26" letter-spacing="6" fill="#0a0a0c" opacity="0.10" transform="rotate(-30 320 -190)">PREVIEW · REZA OHADI</text><text x="480" y="-190" font-family="Helvetica, Arial, sans-serif" font-size="26" letter-spacing="6" fill="#0a0a0c" opacity="0.10" transform="rotate(-30 640 -190)">PREVIEW · REZA OHADI</text><text x="800" y="-190" font-family="Helvetica, Arial, sans-serif" font-size="26" letter-spacing="6" fill="#0a0a0c" opacity="0.10" transform="rotate(-30 960 -190)">PREVIEW · REZA OHADI</text><text x="-320" y="0" font-family="Helvetica, Arial, sans-serif" font-size="26" letter-spacing="6" fill="#0a0a0c" opacity="0.10" transform="rotate(-30 -320 0)">PREVIEW · REZA OHADI</text><text x="0" y="0" font-family="Helvetica, Arial, sans-serif" font-size="26" letter-spacing="6" fill="#0a0a0c" opacity="0.10" transform="rotate(-30 0 0)">PREVIEW · REZA OHADI</text><text x="320" y="0" font-family="Helvetica, Arial, sans-serif" font-size="26" letter-spacing="6" fill="#0a0a0c" opacity="0.10" transform="rotate(-30 320 0)">PREVIEW · REZA OHADI</text><text x="640" y="0" font-family="Helvetica, Arial, sans-serif" font-size="26" letter-spacing="6" fill="#0a0a0c" opacity="0.10" transform="rotate(-30 640 0)">PREVIEW · REZA OHADI</text><text x="960" y="0" font-family="Helvetica, Arial, sans-serif" font-size="26" letter-spacing="6" fill="#0a0a0c" opacity="0.10" transform="rotate(-30 960 0)">PREVIEW · REZA OHADI</text><text x="-160" y="190" font-family="Helvetica, Arial, sans-serif" font-size="26" letter-spacing="6" fill="#0a0a0c" opacity="0.10" transform="rotate(-30 -320 190)">PREVIEW · REZA OHADI</text><text x="160" y="190" font-family="Helvetica, Arial, sans-serif" font-size="26" letter-spacing="6" fill="#0a0a0c" opacity="0.10" transform="rotate(-30 0 190)">PREVIEW · REZA OHADI</text><text x="480" y="190" font-family="Helvetica, Arial, sans-serif" font-size="26" letter-spacing="6" fill="#0a0a0c" opacity="0.10" transform="rotate(-30 320 190)">PREVIEW · REZA OHADI</text><text x="800" y="190" font-family="Helvetica, Arial, sans-serif" font-size="26" letter-spacing="6" fill="#0a0a0c" opacity="0.10" transform="rotate(-30 640 190)">PREVIEW · REZA OHADI</text><text x="1120" y="190" font-family="Helvetica, Arial, sans-serif" font-size="26" letter-spacing="6" fill="#0a0a0c" opacity="0.10" transform="rotate(-30 960 190)">PREVIEW · REZA OHADI</text><text x="-320" y="380" font-family="Helvetica, Arial, sans-serif" font-size="26" letter-spacing="6" fill="#0a0a0c" opacity="0.10" transform="rotate(-30 -320 380)">PREVIEW · REZA OHADI</text><text x="0" y="380" font-family="Helvetica, Arial, sans-serif" font-size="26" letter-spacing="6" fill="#0a0a0c" opacity="0.10" transform="rotate(-30 0 380)">PREVIEW · REZA OHADI</text><text x="320" y="380" font-family="Helvetica, Arial, sans-serif" font-size="26" letter-spacing="6" fill="#0a0a0c" opacity="0.10" transform="rotate(-30 320 380)">PREVIEW · REZA OHADI</text><text x="640" y="380" font-family="Helvetica, Arial, sans-serif" font-size="26" letter-spacing="6" fill="#0a0a0c" opacity="0.10" transform="rotate(-30 640 380)">PREVIEW · REZA OHADI</text><text x="960" y="380" font-family="Helvetica, Arial, sans-serif" font-size="26" letter-spacing="6" fill="#0a0a0c" opacity="0.10" transform="rotate(-30 960 380)">PREVIEW · REZA OHADI</text><text x="-160" y="570" font-family="Helvetica, Arial, sans-serif" font-size="26" letter-spacing="6" fill="#0a0a0c" opacity="0.10" transform="rotate(-30 -320 570)">PREVIEW · REZA OHADI</text><text x="160" y="570" font-family="Helvetica, Arial, sans-serif" font-size="26" letter-spacing="6" fill="#0a0a0c" opacity="0.10" transform="rotate(-30 0 570)">PREVIEW · REZA OHADI</text><text x="480" y="570" font-family="Helvetica, Arial, sans-serif" font-size="26" letter-spacing="6" fill="#0a0a0c" opacity="0.10" transform="rotate(-30 320 570)">PREVIEW · REZA OHADI</text><text x="800" y="570" font-family="Helvetica, Arial, sans-serif" font-size="26" letter-spacing="6" fill="#0a0a0c" opacity="0.10" transform="rotate(-30 640 570)">PREVIEW · REZA OHADI</text><text x="1120" y="570" font-family="Helvetica, Arial, sans-serif" font-size="26" letter-spacing="6" fill="#0a0a0c" opacity="0.10" transform="rotate(-30 960 570)">PREVIEW · REZA OHADI</text><text x="-320" y="760" font-family="Helvetica, Arial, sans-serif" font-size="26" letter-spacing="6" fill="#0a0a0c" opacity="0.10" transform="rotate(-30 -320 760)">PREVIEW · REZA OHADI</text><text x="0" y="760" font-family="Helvetica, Arial, sans-serif" font-size="26" letter-spacing="6" fill="#0a0a0c" opacity="0.10" transform="rotate(-30 0 760)">PREVIEW · REZA OHADI</text><text x="320" y="760" font-family="Helvetica, Arial, sans-serif" font-size="26" letter-spacing="6" fill="#0a0a0c" opacity="0.10" transform="rotate(-30 320 760)">PREVIEW · REZA OHADI</text><text x="640" y="760" font-family="Helvetica, Arial, sans-serif" font-size="26" letter-spacing="6" fill="#0a0a0c" opacity="0.10" transform="rotate(-30 640 760)">PREVIEW · REZA OHADI</text><text x="960" y="760" font-family="Helvetica, Arial, sans-serif" font-size="26" letter-spacing="6" fill="#0a0a0c" opacity="0.10" transform="rotate(-30 960 760)">PREVIEW · REZA OHADI</text><text x="-160" y="950" font-family="Helvetica, Arial, sans-serif" font-size="26" letter-spacing="6" fill="#0a0a0c" opacity="0.10" transform="rotate(-30 -320 950)">PREVIEW · REZA OHADI</text><text x="160" y="950" font-family="Helvetica, Arial, sans-serif" font-size="26" letter-spacing="6" fill="#0a0a0c" opacity="0.10" transform="rotate(-30 0 950)">PREVIEW · REZA OHADI</text><text x="480" y="950" font-family="Helvetica, Arial, sans-serif" font-size="26" letter-spacing="6" fill="#0a0a0c" opacity="0.10" transform="rotate(-30 320 950)">PREVIEW · REZA OHADI</text><text x="800" y="950" font-family="Helvetica, Arial, sans-serif" font-size="26" letter-spacing="6" fill="#0a0a0c" opacity="0.10" transform="rotate(-30 640 950)">PREVIEW · REZA OHADI</text><text x="1120" y="950" font-family="Helvetica, Arial, sans-serif" font-size="26" letter-spacing="6" fill="#0a0a0c" opacity="0.10" transform="rotate(-30 960 950)">PREVIEW · REZA OHADI</text><text x="-320" y="1140" font-family="Helvetica, Arial, sans-serif" font-size="26" letter-spacing="6" fill="#0a0a0c" opacity="0.10" transform="rotate(-30 -320 1140)">PREVIEW · REZA OHADI</text><text x="0" y="1140" font-family="Helvetica, Arial, sans-serif" font-size="26" letter-spacing="6" fill="#0a0a0c" opacity="0.10" transform="rotate(-30 0 1140)">PREVIEW · REZA OHADI</text><text x="320" y="1140" font-family="Helvetica, Arial, sans-serif" font-size="26" letter-spacing="6" fill="#0a0a0c" opacity="0.10" transform="rotate(-30 320 1140)">PREVIEW · REZA OHADI</text><text x="640" y="1140" font-family="Helvetica, Arial, sans-serif" font-size="26" letter-spacing="6" fill="#0a0a0c" opacity="0.10" transform="rotate(-30 640 1140)">PREVIEW · REZA OHADI</text><text x="960" y="1140" font-family="Helvetica, Arial, sans-serif" font-size="26" letter-spacing="6" fill="#0a0a0c" opacity="0.10" transform="rotate(-30 960 1140)">PREVIEW · REZA OHADI</text>
  <rect width="900" height="1165" filter="url(#grain-pv1)"/>
  <rect x="0" y="0" width="900" height="1165" fill="none" stroke="#1a1a1d" stroke-width="1" opacity="0.15"/>
</svg>
